{
  "accessors": [
    {
      "bufferView": 0,
      "componentType": 5126,
      "count": 40773,
      "max": [
        0.7044172883033752,
        0.9562506675720215,
        2.2515323162078857
      ],
      "min": [
        -0.5474820137023926,
        -0.9562510251998901,
        -1.8338899612426758
      ],
      "type": "VEC3"
    },
    {
      "bufferView": 1,
      "componentType": 5125,
      "count": 91331,
      "type": "SCALAR"
    },
    {
      "bufferView": 2,
      "componentType": 5126,
      "count": 40773,
      "type": "VEC3"
    },
    {
      "bufferView": 3,
      "componentType": 5126,
      "count": 40773,
      "type": "VEC4"
    },
    {
      "bufferView": 4,
      "componentType": 5126,
      "count": 40773,
      "type": "VEC2"
    }
  ],
  "asset": {
    "version": "2.0"
  },
  "bufferViews": [
    {
      "buffer": 0,
      "byteLength": 489276,
      "target": 34962
    },
    {
      "buffer": 1,
      "byteLength": 365324,
      "target": 34963
    },
    {
      "buffer": 2,
      "byteLength": 489276,
      "target": 34962
    },
    {
      "buffer": 3,
      "byteLength": 652368,
      "target": 34962
    },
    {
      "buffer": 4,
      "byteLength": 326184,
      "target": 34962
    }
  ],
  "buffers": [
    {
      "byteLength": 489276,
      "uri": "data:application/octet-stream;base64,"
    },
    {
      "byteLength": 365324,
      "uri": "data:application/octet-stream;base64,"
    },
    {
      "byteLength": 489276,
      "uri": "data:application/octet-stream;base64,"
    },
    {
      "byteLength": 652368,
      "uri": "data:application/octet-stream;base64,"
    },
    {
      "byteLength": 326184,
      "uri": "data:application/octet-stream;base64,"
    }
  ],
  "images": [
    {
      "uri": "textures/TD_Checker_Metallic.1001.png"
    },
    {
      "uri": "textures/TD_Checker_AmbientOcclusion.1001.png"
    },
    {
      "uri": "textures/TD_Checker_BaseColor.1001.png"
    },
    {
      "uri": "textures/TD_Checker_Normal.1001.png"
    },
    {
      "uri": "textures/TD_Checker_Roughness.1001.png"
    }
  ],
  "materials": [
    {
      "doubleSided": true,
      "name": "Rojo",
      "normalTexture": {
        "index": 3
      },
      "occlusionTexture": {
        "index": 1
      },
      "pbrMetallicRoughness": {
        "baseColorFactor": [
          0.800000011920929,
          0.800000011920929,
          0.800000011920929,
          1.0
        ],
        "baseColorTexture": {
          "index": 2
        },
        "metallicRoughnessTexture": {
          "index": 4
        }
      }
    }
  ],
  "meshes": [
    {
      "name": "Pepino_low.001_Rojo_0",
      "primitives": [
        {
          "attributes": {
            "NORMAL": 2,
            "POSITION": 0,
            "TANGENT": 3,
            "TEXCOORD_0": 4
          },
          "indices": 1,
          "material": 0,
          "mode": 5
        }
      ]
    }
  ],
  "nodes": [
    {
      "mesh": 0,
      "name": "Pepino_low.001_Rojo_0"
    },
    {
      "children": [
        0
      ],
      "name": "Pepino_low.001",
      "rotation": [
        -0.7071068387878171,
        0.0,
        0.0,
        0.7071067235852733
      ],
      "scale": [
        100.0,
        100.0,
        100.0
      ],
      "translation": [
        0.0,
        0.0,
        -146.6719970703125
      ]
    },
    {
      "children": [
        1
      ],
      "name": "RootNode"
    },
    {
      "children": [
        2
      ],
      "name": "MINIATURA DE PEPINO",
      "rotation": [
        1.1102230246251565e-16,
        0.0,
        0.0,
        1.0
      ],
      "scale": [
        0.009999999776482582,
        0.009999999776482582,
        0.009999999776482582
      ],
      "translation": [
        0.0,
        0.0,
        0.0
      ]
    }
  ],
  "samplers": [
    {
      "magFilter": 9729,
      "minFilter": 9729,
      "wrapS": 10497,
      "wrapT": 10497
    },
    {
      "magFilter": 9729,
      "minFilter": 9729,
      "wrapS": 10497,
      "wrapT": 10497
    },
    {
      "magFilter": 9729,
      "minFilter": 9729,
      "wrapS": 10497,
      "wrapT": 10497
    },
    {
      "magFilter": 9729,
      "minFilter": 9729,
      "wrapS": 10497,
      "wrapT": 10497
    },
    {
      "magFilter": 9729,
      "minFilter": 9729,
      "wrapS": 10497,
      "wrapT": 10497
    }
  ],
  "scene": 0,
  "scenes": [
    {
      "nodes": [
        3
      ]
    }
  ],
  "textures": [
    {
      "sampler": 0,
      "source": 0
    },
    {
      "sampler": 1,
      "source": 1
    },
    {
      "sampler": 2,
      "source": 2
    },
    {
      "sampler": 3,
      "source": 3
    },
    {
      "sampler": 4,
      "source": 4
    }
  ]
}
